# xmcd
#
# Track frame offsets: 
#        150
#        14800
#        27059
#        46252
#        60313
#        84777
#        121322
#        137221
#        148740
#        168318
#        187801
#        202134
#        216329
#        228317
#        258734
#        280247
#        303177
#        320340
#
# Disc length: 4492 seconds
#
# Revision: 3
# Processed by: cddbd v1.5.2PL0 Copyright (c) Steve Scherf et al.
# Submitted via: ExactAudioCopy v1.3
#
DISCID=00118a12
DTITLE=Taj Mahal - The Essential Taj Mahal CD2
DYEAR=2005
DGENRE=Blues
TTITLE0=Johnny Too Bad
TTITLE1=Slave Driver
TTITLE2=(Clara) St. Kitts Woman
TTITLE3=When I Feel The Sea Beneath My Soul
TTITLE4=Satisfied 'N' Tickled Too
TTITLE5=Love Theme In The Key of D
TTITLE6=Everybody Is Somebody
TTITLE7=Crossing
TTITLE8=Don't Call Us
TTITLE9=Big Legged Mommas Are Back In Style
TTITLE10=That's How Strong My Love Is
TTITLE11=Here In The Dark
TTITLE12=Lovin' In My Baby's Eyes
TTITLE13=Señor Blues
TTITLE14=The New Hula Blues
TTITLE15=Queen Bee
TTITLE16=Cruisin'
TTITLE17=John Henry (feat Etta Baker)
EXTD=
EXTT0=
EXTT1=
EXTT2=
EXTT3=
EXTT4=
EXTT5=
EXTT6=
EXTT7=
EXTT8=
EXTT9=
EXTT10=
EXTT11=
EXTT12=
EXTT13=
EXTT14=
EXTT15=
EXTT16=
EXTT17=
PLAYORDER=
